<svg width="80" height="80" viewBox="0 0 80 80" fill="none" xmlns="http://www.w3.org/2000/svg">
<rect width="80" height="80" rx="8" fill="#242424"/>
<path d="M61.4257 14L67.3111 24.1828L55.2386 45.1065H43.5886L61.4257 14Z" fill="#E2E2E2"/>
<path d="M61.4106 55.5458L55.4498 65.5777L43.5886 45.1065L49.4589 34.9087L61.4106 55.5458Z" fill="#E2E2E2"/>
<path d="M67.3111 24.1828L61.4258 14H25.7515L19.8662 24.1828H67.3111Z" fill="#E2E2E2"/>
<path d="M18.8853 66.0001L13 55.8173L25.0725 34.9087H36.7224L18.8853 66.0001Z" fill="#E2E2E2"/>
<path d="M13 55.8174L18.8853 66.0001H43.0152L37.3412 55.8174H13Z" fill="#E2E2E2"/>
<g opacity="0.15">
<path d="M63.267 31.1974H51.5566L55.5858 24.1826H67.3112L63.267 31.1974Z" fill="url(#paint0_linear_705_31)"/>
<path d="M17.15 48.8174H28.8452L24.8311 55.8171H13.1057L17.15 48.8174Z" fill="url(#paint1_linear_705_31)"/>
<path d="M59.449 37.7897L53.4429 27.9087L49.459 34.9084L55.299 44.9856L59.449 37.7897Z" fill="url(#paint2_linear_705_31)"/>
</g>
<defs>
<linearGradient id="paint0_linear_705_31" x1="59.1103" y1="31.36" x2="59.7015" y2="24.6848" gradientUnits="userSpaceOnUse">
<stop stop-color="#242424" stop-opacity="0"/>
<stop offset="0.0986566" stop-color="#FAFAFA" stop-opacity="0.0986566"/>
<stop offset="0.2225" stop-color="#EAEAEA" stop-opacity="0.2225"/>
<stop offset="0.36" stop-color="#D0D0D0" stop-opacity="0.36"/>
<stop offset="0.5072" stop-color="#ADADAD" stop-opacity="0.5072"/>
<stop offset="0.6623" stop-color="#7F7F7F" stop-opacity="0.6623"/>
<stop offset="0.8239" stop-color="#464646" stop-opacity="0.8239"/>
<stop offset="0.9881" stop-color="#050505" stop-opacity="0.9881"/>
<stop offset="1"/>
</linearGradient>
<linearGradient id="paint1_linear_705_31" x1="21.3003" y1="48.6467" x2="20.709" y2="55.3219" gradientUnits="userSpaceOnUse">
<stop stop-color="#242424" stop-opacity="0"/>
<stop offset="0.0986566" stop-color="#FAFAFA" stop-opacity="0.0986566"/>
<stop offset="0.2225" stop-color="#EAEAEA" stop-opacity="0.2225"/>
<stop offset="0.36" stop-color="#D0D0D0" stop-opacity="0.36"/>
<stop offset="0.5072" stop-color="#ADADAD" stop-opacity="0.5072"/>
<stop offset="0.6623" stop-color="#7F7F7F" stop-opacity="0.6623"/>
<stop offset="0.8239" stop-color="#464646" stop-opacity="0.8239"/>
<stop offset="0.9881" stop-color="#050505" stop-opacity="0.9881"/>
<stop offset="1"/>
</linearGradient>
<linearGradient id="paint2_linear_705_31" x1="57.3925" y1="34.2848" x2="51.8982" y2="38.2149" gradientUnits="userSpaceOnUse">
<stop stop-color="#242424" stop-opacity="0"/>
<stop offset="0.0986566" stop-color="#FAFAFA" stop-opacity="0.0986566"/>
<stop offset="0.2225" stop-color="#EAEAEA" stop-opacity="0.2225"/>
<stop offset="0.36" stop-color="#D0D0D0" stop-opacity="0.36"/>
<stop offset="0.5072" stop-color="#ADADAD" stop-opacity="0.5072"/>
<stop offset="0.6623" stop-color="#7F7F7F" stop-opacity="0.6623"/>
<stop offset="0.8239" stop-color="#464646" stop-opacity="0.8239"/>
<stop offset="0.9881" stop-color="#050505" stop-opacity="0.9881"/>
<stop offset="1"/>
</linearGradient>
</defs>
</svg>
